<?xml version="1.0" standalone="no"?>
<!DOCTYPE svg PUBLIC "-//W3C//DTD SVG 20010904//EN"
 "http://www.w3.org/TR/2001/REC-SVG-20010904/DTD/svg10.dtd">
<svg version="1.0" xmlns="http://www.w3.org/2000/svg"
 width="400.000000pt" height="400.000000pt" viewBox="0 0 400.000000 400.000000"
 preserveAspectRatio="xMidYMid meet">
<metadata>
Created by potrace 1.11, written by Peter Selinger 2001-2013
</metadata>
<g transform="translate(0.000000,400.000000) scale(0.100000,-0.100000)"
fill="#000000" stroke="none">
<path d="M1795 3829 c-698 -73 -1306 -563 -1531 -1235 -166 -495 -105 -1060
161 -1499 307 -505 798 -821 1377 -884 837 -92 1644 427 1913 1231 220 657 51
1371 -441 1862 -392 393 -927 583 -1479 525z m370 -454 c144 -37 281 -126 392
-253 67 -77 123 -147 123 -156 0 -3 -46 -40 -102 -82 l-102 -78 -40 50 c-104
125 -170 185 -246 222 -73 36 -79 37 -185 37 -100 0 -115 -3 -167 -28 -67 -33
-121 -90 -155 -164 -22 -47 -25 -65 -21 -142 3 -77 7 -96 40 -162 50 -101 118
-167 360 -351 215 -163 351 -279 435 -371 104 -115 185 -262 213 -390 19 -82
8 -256 -21 -337 -78 -223 -272 -401 -504 -460 -88 -23 -249 -27 -337 -9 -185
36 -345 139 -471 301 -57 74 -147 215 -147 230 0 3 48 34 107 69 99 59 107 62
117 44 100 -172 228 -310 341 -366 57 -28 81 -34 155 -37 48 -2 111 1 140 7
140 30 266 127 324 250 29 61 31 74 31 172 0 102 -1 107 -39 185 -34 68 -59
98 -175 215 -78 78 -206 190 -301 264 -327 255 -414 341 -479 478 -43 91 -61
173 -61 279 0 149 36 253 128 371 82 105 243 199 372 218 84 12 215 9 275 -6z"/>
</g>
</svg>
